<svg xmlns="http://www.w3.org/2000/svg" viewBox="0 0 149.85 94.9"><defs><style>.cls-1{fill:#273133;}</style></defs><title>bike</title><g id="Layer_2" data-name="Layer 2"><g id="Layer_1-2" data-name="Layer 1"><path class="cls-1" d="M52.61,61c1.45,13.24-6,25-18.11,28.75A26.43,26.43,0,0,1,9.75,44.12c9.5-7.8,25.09-8.75,36.11,2.51l9.06-7L50.14,29.29c-1.14-2.45-2.32-4.84-3.37-7.35a1.49,1.49,0,0,0-1.84-1.07.81.81,0,0,0-.22.07c-1.26.28-2.56.43-3.85.61-1.78.24-3-.58-3.24-2.07s.73-2.44,2.4-2.7Q48.9,15.37,57.78,14a2.43,2.43,0,0,1,2.84,1.86,2.33,2.33,0,0,1-1.68,2.83l-.26.05c-2.45.46-4.91.81-7.54,1.23l2.65,5.75,2.18-.7q21.73-7.28,43.47-14.5c.85-.28,1.45-.59,1.63-1.62a2,2,0,0,1,2.18-1.7,2.34,2.34,0,0,1,2.41,1.85c1.38,4.17,2.78,8.33,4.17,12.5q3,9.09,6.06,18.18c.15.46.35.91.55,1.41a27.87,27.87,0,0,1,16.94,1.58,27.17,27.17,0,1,1-23.12.8c1.24-.6,1.5-1.14,1-2.46-2.68-7.84-5.26-15.71-7.88-23.57-.16-.47-.36-.93-.6-1.57-1,1.21-1.92,2.31-2.83,3.42Q86.3,36.05,72.56,52.71A2.49,2.49,0,0,0,71.92,55a8.27,8.27,0,0,1-4.39,8.63,8.37,8.37,0,0,1-9.81-1.54c-.52-.54-.94-1.16-1.43-1.72-.07-.08-.29-.08-.43-.05C54.8,60.53,53.74,60.78,52.61,61ZM113.4,47.45a21.55,21.55,0,1,0,29.38,12.2C138.36,47.53,125.78,43.74,118,46c.14.46.27.92.42,1.38l6.07,18.18c.63,1.87.12,3.24-1.34,3.71S120.59,69,120,67.17c-.5-1.47-1-2.94-1.48-4.4C116.82,57.71,115.12,52.65,113.4,47.45ZM47.77,62.28c-.63.12-1.17.2-1.69.32L27.71,66.82c-1.33.31-3.13-.33-3.48-1.35-.47-1.38.19-2.4,1.3-3.2.32-.23.63-.49.95-.73L40.85,50.45c.33-.26.64-.57,1-.85-6.3-7.41-18.64-8.75-27.31-3A21.59,21.59,0,0,0,33.54,85C45.26,80.89,49,69.33,47.77,62.28ZM95.65,17.07l-.18-.28L56,30.14c2.69,5.83,5.28,11.45,7.89,17a1.61,1.61,0,0,0,.85.67c1.42.54,2.87,1,4.44,1.58ZM57,44.14l-8.24,6.31,2.81,5.89c1-.24,2-.44,3-.73a1,1,0,0,0,.66-.63,9.12,9.12,0,0,1,4-5.94ZM63.62,59.8a3.6,3.6,0,1,0-3.54-3.69,3.64,3.64,0,0,0,3.51,3.69ZM46.85,57.37l-1.93-3.92L37.31,59.3l.14.31Z"/><path class="cls-1" d="M98.34,7.45a11.5,11.5,0,0,1-2.07-2.17,1.9,1.9,0,0,1,.78-2.57l0,0A34,34,0,0,1,102.6,0,3.1,3.1,0,0,1,105,.9a1.76,1.76,0,0,1,.22,2.47l-.22.21C103,5,100.79,6.07,98.34,7.45Z"/><path class="cls-1" d="M64.85,38.21a2.35,2.35,0,0,1-2.35-1.94,2.27,2.27,0,0,1,1.55-2.73c2.86-1.17,5.72-2.3,8.59-3.44,1.15-.47,2.29-1,3.47-1.37A2.28,2.28,0,0,1,79,30.11,2.09,2.09,0,0,1,78.17,33L78,33c-4.16,1.78-8.38,3.42-12.58,5.1A2.18,2.18,0,0,1,64.85,38.21Z"/></g></g></svg>