<svg xmlns="http://www.w3.org/2000/svg" viewBox="0 0 23 14.92"><defs><style>.cls-1{fill:#273133;}</style></defs><title>deliver</title><g id="Layer_2" data-name="Layer 2"><g id="Layer_1-2" data-name="Layer 1"><path class="cls-1" d="M15.3,13H7V12H14.3V1.27A.27.27,0,0,0,14,1H1.27A.27.27,0,0,0,1,1.27V11.73a.27.27,0,0,0,.27.27h2.4v1H1.27A1.27,1.27,0,0,1,0,11.73V1.27A1.27,1.27,0,0,1,1.27,0H14A1.27,1.27,0,0,1,15.3,1.27Z"/><path class="cls-1" d="M21.73,13H20.3V12h1.43a.27.27,0,0,0,.27-.27v-4L20.21,5a1.81,1.81,0,0,0-1.53-.82H15.3V12H17v1H14.3V3.2h4.38A2.82,2.82,0,0,1,21,4.46L23,7.4v4.33A1.27,1.27,0,0,1,21.73,13Z"/><path class="cls-1" d="M5.32,14.92A2.43,2.43,0,1,1,7.75,12.5,2.42,2.42,0,0,1,5.32,14.92Zm0-3.85A1.43,1.43,0,1,0,6.75,12.5,1.42,1.42,0,0,0,5.32,11.07Z"/><path class="cls-1" d="M18.65,14.92a2.43,2.43,0,1,1,2.43-2.42A2.42,2.42,0,0,1,18.65,14.92Zm0-3.85a1.43,1.43,0,1,0,1.43,1.43A1.42,1.42,0,0,0,18.65,11.07Z"/><polygon class="cls-1" points="22.5 8.05 18.15 8.05 18.15 5.68 19.15 5.68 19.15 7.05 22.5 7.05 22.5 8.05"/><rect class="cls-1" x="12.28" y="10.01" width="1" height="1"/><rect class="cls-1" x="1.99" y="7.05" width="11.29" height="1"/></g></g></svg>