<svg xmlns="http://www.w3.org/2000/svg" viewBox="0 0 21.51 22.71"><defs><style>.cls-1{fill:#fff;}</style></defs><title>return</title><g id="Layer_2" data-name="Layer 2"><g id="Layer_1-2" data-name="Layer 1"><path class="cls-1" d="M10.9,16.6a.57.57,0,0,1-.18,0L5.26,14.52V8.4A.51.51,0,0,1,5.48,8a.5.5,0,0,1,.46-.05L11.4,10V16.1a.49.49,0,0,1-.21.41A.52.52,0,0,1,10.9,16.6ZM6.26,13.83l4.14,1.55V10.67L6.26,9.12Z"/><path class="cls-1" d="M10.9,16.6a.57.57,0,0,1-.28-.08.5.5,0,0,1-.22-.42V10l5.17-1.91a.5.5,0,0,1,.67.47v5.94l-5.15,2.1A.63.63,0,0,1,10.9,16.6Zm.5-5.93v4.69l3.84-1.57V9.25Z"/><path class="cls-1" d="M10.9,10.82a.57.57,0,0,1-.18,0L5.59,8.86a.49.49,0,0,1,0-.93l5-1.86,5.31,2a.51.51,0,0,1,0,.94l-4.85,1.79A.47.47,0,0,1,10.9,10.82ZM7.19,8.4,10.9,9.79l3.41-1.26L10.6,7.14Z"/><path class="cls-1" d="M13.24,21l-.15-1a8.82,8.82,0,0,0,6-13.48A8.41,8.41,0,0,0,11.87,2.6H9.75v-1h2.09a9.44,9.44,0,0,1,8.22,4.56A9.82,9.82,0,0,1,13.24,21Z"/><polygon class="cls-1" points="11.15 4.21 9.04 2.1 11.15 0 11.85 0.71 10.46 2.1 11.85 3.5 11.15 4.21"/><path class="cls-1" d="M11.76,21.1H9.66a9.41,9.41,0,0,1-8.21-4.56A9.81,9.81,0,0,1,8.27,1.72l.15,1a8.82,8.82,0,0,0-6,13.48A8.41,8.41,0,0,0,9.63,20.1h2.13Z"/><polygon class="cls-1" points="10.36 22.71 9.65 22 11.05 20.6 9.65 19.21 10.36 18.5 12.46 20.6 10.36 22.71"/></g></g></svg>
